<svg xmlns="http://www.w3.org/2000/svg" width="600" height="400"><path d="M253,220L214,171L121,249Z" fill="rgb(220,67,119)" stroke="rgb(220,67,119)" stroke-width="1.51"/><path d="M121,249L214,321L253,220Z" fill="rgb(215,65,132)" stroke="rgb(215,65,132)" stroke-width="1.51"/><path d="M214,171L154,141L121,249Z" fill="rgb(226,69,107)" stroke="rgb(226,69,107)" stroke-width="1.51"/><path d="M121,249L152,362L214,321Z" fill="rgb(212,63,138)" stroke="rgb(212,63,138)" stroke-width="1.51"/><path d="M67,165L69,254L121,249Z" fill="rgb(227,70,103)" stroke="rgb(227,70,103)" stroke-width="1.51"/><path d="M69,254L152,362L121,249Z" fill="rgb(218,66,124)" stroke="rgb(218,66,124)" stroke-width="1.51"/><path d="M154,141L67,165L121,249Z" fill="rgb(229,71,98)" stroke="rgb(229,71,98)" stroke-width="1.51"/><path d="M253,220L366,161L214,171Z" fill="rgb(218,66,125)" stroke="rgb(218,66,125)" stroke-width="1.51"/><path d="M214,321L340,257L253,220Z" fill="rgb(208,62,145)" stroke="rgb(208,62,145)" stroke-width="1.51"/><path d="M381,368L340,257L214,321Z" fill="rgb(197,60,164)" stroke="rgb(197,60,164)" stroke-width="1.51"/><path d="M69,254L22,315L152,362Z" fill="rgb(218,66,124)" stroke="rgb(218,66,124)" stroke-width="1.51"/><path d="M-45,265L22,315L69,254Z" fill="rgb(227,70,105)" stroke="rgb(227,70,105)" stroke-width="1.51"/><path d="M340,257L366,161L253,220Z" fill="rgb(211,63,140)" stroke="rgb(211,63,140)" stroke-width="1.51"/><path d="M214,171L226,27L154,141Z" fill="rgb(231,72,94)" stroke="rgb(231,72,94)" stroke-width="1.51"/><path d="M152,362L219,428L214,321Z" fill="rgb(200,60,159)" stroke="rgb(200,60,159)" stroke-width="1.51"/><path d="M130,434L219,428L152,362Z" fill="rgb(198,60,161)" stroke="rgb(198,60,161)" stroke-width="1.51"/><path d="M58,414L130,434L152,362Z" fill="rgb(204,61,152)" stroke="rgb(204,61,152)" stroke-width="1.51"/><path d="M341,74L226,27L214,171Z" fill="rgb(229,71,99)" stroke="rgb(229,71,99)" stroke-width="1.51"/><path d="M154,141L136,27L67,165Z" fill="rgb(236,75,79)" stroke="rgb(236,75,79)" stroke-width="1.51"/><path d="M226,27L136,27L154,141Z" fill="rgb(237,75,76)" stroke="rgb(237,75,76)" stroke-width="1.51"/><path d="M366,161L341,74L214,171Z" fill="rgb(221,67,118)" stroke="rgb(221,67,118)" stroke-width="1.51"/><path d="M22,315L58,414L152,362Z" fill="rgb(212,64,137)" stroke="rgb(212,64,137)" stroke-width="1.51"/><path d="M22,315L-62,354L58,414Z" fill="rgb(218,66,125)" stroke="rgb(218,66,125)" stroke-width="1.51"/><path d="M67,165L-45,265L69,254Z" fill="rgb(231,72,94)" stroke="rgb(231,72,94)" stroke-width="1.51"/><path d="M-79,119L-45,265L67,165Z" fill="rgb(237,75,77)" stroke="rgb(237,75,77)" stroke-width="1.51"/><path d="M219,428L381,368L214,321Z" fill="rgb(192,59,172)" stroke="rgb(192,59,172)" stroke-width="1.51"/><path d="M340,257L465,229L366,161Z" fill="rgb(204,61,152)" stroke="rgb(204,61,152)" stroke-width="1.51"/><path d="M381,368L422,333L340,257Z" fill="rgb(188,58,177)" stroke="rgb(188,58,177)" stroke-width="1.51"/><path d="M366,161L438,33L341,74Z" fill="rgb(221,67,119)" stroke="rgb(221,67,119)" stroke-width="1.51"/><path d="M136,27L33,22L67,165Z" fill="rgb(242,79,61)" stroke="rgb(242,79,61)" stroke-width="1.51"/><path d="M218,-73L112,-14L136,27Z" fill="rgb(243,80,54)" stroke="rgb(243,80,54)" stroke-width="1.51"/><path d="M112,-14L33,22L136,27Z" fill="rgb(246,82,45)" stroke="rgb(246,82,45)" stroke-width="1.51"/><path d="M-45,265L-62,354L22,315Z" fill="rgb(224,68,111)" stroke="rgb(224,68,111)" stroke-width="1.51"/><path d="M422,333L465,229L340,257Z" fill="rgb(193,59,170)" stroke="rgb(193,59,170)" stroke-width="1.51"/><path d="M465,229L460,179L366,161Z" fill="rgb(203,61,152)" stroke="rgb(203,61,152)" stroke-width="1.51"/><path d="M219,428L375,453L381,368Z" fill="rgb(180,57,188)" stroke="rgb(180,57,188)" stroke-width="1.51"/><path d="M130,434L161,516L219,428Z" fill="rgb(198,60,162)" stroke="rgb(198,60,162)" stroke-width="1.51"/><path d="M13,562L161,516L130,434Z" fill="rgb(205,62,150)" stroke="rgb(205,62,150)" stroke-width="1.51"/><path d="M13,562L130,434L58,414Z" fill="rgb(208,63,145)" stroke="rgb(208,63,145)" stroke-width="1.51"/><path d="M112,-14L84,-36L33,22Z" fill="rgb(247,83,36)" stroke="rgb(247,83,36)" stroke-width="1.51"/><path d="M135,-144L84,-36L112,-14Z" fill="rgb(246,81,44)" stroke="rgb(246,81,44)" stroke-width="1.51"/><path d="M218,-73L136,27L226,27Z" fill="rgb(241,78,62)" stroke="rgb(241,78,62)" stroke-width="1.51"/><path d="M-78,36L-79,119L33,22Z" fill="rgb(247,82,39)" stroke="rgb(247,82,39)" stroke-width="1.51"/><path d="M33,22L-79,119L67,165Z" fill="rgb(243,79,55)" stroke="rgb(243,79,55)" stroke-width="1.51"/><path d="M-45,265L-170,239L-62,354Z" fill="rgb(227,70,104)" stroke="rgb(227,70,104)" stroke-width="1.51"/><path d="M422,333L516,277L465,229Z" fill="rgb(184,58,182)" stroke="rgb(184,58,182)" stroke-width="1.51"/><path d="M381,368L456,485L422,333Z" fill="rgb(167,57,204)" stroke="rgb(167,57,204)" stroke-width="1.51"/><path d="M335,516L375,453L219,428Z" fill="rgb(182,58,185)" stroke="rgb(182,58,185)" stroke-width="1.51"/><path d="M354,-39L218,-73L226,27Z" fill="rgb(237,75,76)" stroke="rgb(237,75,76)" stroke-width="1.51"/><path d="M354,-39L226,27L341,74Z" fill="rgb(233,73,89)" stroke="rgb(233,73,89)" stroke-width="1.51"/><path d="M-62,354L-68,417L58,414Z" fill="rgb(215,65,132)" stroke="rgb(215,65,132)" stroke-width="1.51"/><path d="M-183,371L-68,417L-62,354Z" fill="rgb(216,65,128)" stroke="rgb(216,65,128)" stroke-width="1.51"/><path d="M438,33L354,-39L341,74Z" fill="rgb(228,70,101)" stroke="rgb(228,70,101)" stroke-width="1.51"/><path d="M249,555L335,516L219,428Z" fill="rgb(187,58,178)" stroke="rgb(187,58,178)" stroke-width="1.51"/><path d="M460,179L438,33L366,161Z" fill="rgb(213,64,135)" stroke="rgb(213,64,135)" stroke-width="1.51"/><path d="M161,516L249,555L219,428Z" fill="rgb(194,59,169)" stroke="rgb(194,59,169)" stroke-width="1.51"/><path d="M13,562L249,555L161,516Z" fill="rgb(201,61,157)" stroke="rgb(201,61,157)" stroke-width="1.51"/><path d="M-23,-23L-78,36L33,22Z" fill="rgb(250,85,16)" stroke="rgb(250,85,16)" stroke-width="1.51"/><path d="M84,-36L-23,-23L33,22Z" fill="rgb(250,84,22)" stroke="rgb(250,84,22)" stroke-width="1.51"/><path d="M69,-145L-23,-23L84,-36Z" fill="rgb(249,84,27)" stroke="rgb(249,84,27)" stroke-width="1.51"/><path d="M460,179L533,146L438,33Z" fill="rgb(209,63,143)" stroke="rgb(209,63,143)" stroke-width="1.51"/><path d="M465,229L533,146L460,179Z" fill="rgb(199,60,160)" stroke="rgb(199,60,160)" stroke-width="1.51"/><path d="M547,368L516,277L422,333Z" fill="rgb(172,57,198)" stroke="rgb(172,57,198)" stroke-width="1.51"/><path d="M456,485L381,368L375,453Z" fill="rgb(169,56,202)" stroke="rgb(169,56,202)" stroke-width="1.51"/><path d="M-164,61L-143,153L-79,119Z" fill="rgb(243,79,57)" stroke="rgb(243,79,57)" stroke-width="1.51"/><path d="M-79,119L-143,153L-45,265Z" fill="rgb(237,75,76)" stroke="rgb(237,75,76)" stroke-width="1.51"/><path d="M-143,153L-170,239L-45,265Z" fill="rgb(233,73,87)" stroke="rgb(233,73,87)" stroke-width="1.51"/><path d="M516,277L533,146L465,229Z" fill="rgb(191,59,172)" stroke="rgb(191,59,172)" stroke-width="1.51"/><path d="M431,531L456,485L375,453Z" fill="rgb(166,56,205)" stroke="rgb(166,56,205)" stroke-width="1.51"/><path d="M431,531L375,453L335,516Z" fill="rgb(172,56,198)" stroke="rgb(172,56,198)" stroke-width="1.51"/><path d="M-65,538L58,414L-68,417Z" fill="rgb(214,64,133)" stroke="rgb(214,64,133)" stroke-width="1.51"/><path d="M-65,538L13,562L58,414Z" fill="rgb(214,64,133)" stroke="rgb(214,64,133)" stroke-width="1.51"/><path d="M270,-184L135,-144L218,-73Z" fill="rgb(241,78,65)" stroke="rgb(241,78,65)" stroke-width="1.51"/><path d="M218,-73L135,-144L112,-14Z" fill="rgb(244,80,54)" stroke="rgb(244,80,54)" stroke-width="1.51"/><path d="M456,485L547,368L422,333Z" fill="rgb(158,56,213)" stroke="rgb(158,56,213)" stroke-width="1.51"/><path d="M516,277L672,178L533,146Z" fill="rgb(186,58,180)" stroke="rgb(186,58,180)" stroke-width="1.51"/><path d="M456,485L532,483L547,368Z" fill="rgb(150,56,220)" stroke="rgb(150,56,220)" stroke-width="1.51"/><path d="M249,555L431,531L335,516Z" fill="rgb(178,57,190)" stroke="rgb(178,57,190)" stroke-width="1.51"/><path d="M354,-39L363,-125L218,-73Z" fill="rgb(234,74,84)" stroke="rgb(234,74,84)" stroke-width="1.51"/><path d="M438,33L414,-84L354,-39Z" fill="rgb(229,71,100)" stroke="rgb(229,71,100)" stroke-width="1.51"/><path d="M521,-73L414,-84L438,33Z" fill="rgb(225,69,109)" stroke="rgb(225,69,109)" stroke-width="1.51"/><path d="M-143,153L-164,61L-170,239Z" fill="rgb(239,77,68)" stroke="rgb(239,77,68)" stroke-width="1.51"/><path d="M-78,36L-164,61L-79,119Z" fill="rgb(246,81,44)" stroke="rgb(246,81,44)" stroke-width="1.51"/><path d="M-127,-48L-164,61L-78,36Z" fill="rgb(250,85,19)" stroke="rgb(250,85,19)" stroke-width="1.51"/><path d="M-127,-48L-78,36L-23,-23Z" fill="rgb(251,86,7)" stroke="rgb(251,86,7)" stroke-width="1.51"/><path d="M-170,239L-183,371L-62,354Z" fill="rgb(223,68,113)" stroke="rgb(223,68,113)" stroke-width="1.51"/><path d="M-175,-126L-183,371L-170,239Z" fill="rgb(239,77,71)" stroke="rgb(239,77,71)" stroke-width="1.51"/><path d="M618,81L530,38L533,146Z" fill="rgb(205,62,149)" stroke="rgb(205,62,149)" stroke-width="1.51"/><path d="M533,146L530,38L438,33Z" fill="rgb(213,64,134)" stroke="rgb(213,64,134)" stroke-width="1.51"/><path d="M-164,482L-65,538L-68,417Z" fill="rgb(214,64,133)" stroke="rgb(214,64,133)" stroke-width="1.51"/><path d="M135,-144L69,-145L84,-36Z" fill="rgb(246,82,41)" stroke="rgb(246,82,41)" stroke-width="1.51"/><path d="M414,-84L363,-125L354,-39Z" fill="rgb(230,71,95)" stroke="rgb(230,71,95)" stroke-width="1.51"/><path d="M-19,-158L-127,-48L-23,-23Z" fill="rgb(251,86,7)" stroke="rgb(251,86,7)" stroke-width="1.51"/><path d="M363,-125L270,-184L218,-73Z" fill="rgb(236,75,79)" stroke="rgb(236,75,79)" stroke-width="1.51"/><path d="M135,-144L270,-184L69,-145Z" fill="rgb(243,80,55)" stroke="rgb(243,80,55)" stroke-width="1.51"/><path d="M539,567L532,483L456,485Z" fill="rgb(150,56,220)" stroke="rgb(150,56,220)" stroke-width="1.51"/><path d="M-183,371L-164,482L-68,417Z" fill="rgb(214,64,133)" stroke="rgb(214,64,133)" stroke-width="1.51"/><path d="M69,-145L-19,-158L-23,-23Z" fill="rgb(251,85,12)" stroke="rgb(251,85,12)" stroke-width="1.51"/><path d="M270,-184L-19,-158L69,-145Z" fill="rgb(246,82,44)" stroke="rgb(246,82,44)" stroke-width="1.51"/><path d="M532,483L617,366L547,368Z" fill="rgb(139,56,230)" stroke="rgb(139,56,230)" stroke-width="1.51"/><path d="M547,368L617,366L516,277Z" fill="rgb(158,56,212)" stroke="rgb(158,56,212)" stroke-width="1.51"/><path d="M414,-84L459,-161L363,-125Z" fill="rgb(228,70,101)" stroke="rgb(228,70,101)" stroke-width="1.51"/><path d="M363,-125L459,-161L270,-184Z" fill="rgb(231,72,93)" stroke="rgb(231,72,93)" stroke-width="1.51"/><path d="M530,38L521,-73L438,33Z" fill="rgb(222,67,116)" stroke="rgb(222,67,116)" stroke-width="1.51"/><path d="M640,-42L521,-73L530,38Z" fill="rgb(217,65,127)" stroke="rgb(217,65,127)" stroke-width="1.51"/><path d="M672,178L618,81L533,146Z" fill="rgb(194,60,167)" stroke="rgb(194,60,167)" stroke-width="1.51"/><path d="M-65,538L-176,535L13,562Z" fill="rgb(214,64,133)" stroke="rgb(214,64,133)" stroke-width="1.51"/><path d="M-164,482L-176,535L-65,538Z" fill="rgb(214,64,133)" stroke="rgb(214,64,133)" stroke-width="1.51"/><path d="M-183,371L-176,535L-164,482Z" fill="rgb(214,64,133)" stroke="rgb(214,64,133)" stroke-width="1.51"/><path d="M521,-73L459,-161L414,-84Z" fill="rgb(224,68,110)" stroke="rgb(224,68,110)" stroke-width="1.51"/><path d="M13,562L539,567L249,555Z" fill="rgb(187,58,178)" stroke="rgb(187,58,178)" stroke-width="1.51"/><path d="M249,555L539,567L431,531Z" fill="rgb(168,56,202)" stroke="rgb(168,56,202)" stroke-width="1.51"/><path d="M431,531L539,567L456,485Z" fill="rgb(157,56,214)" stroke="rgb(157,56,214)" stroke-width="1.51"/><path d="M532,483L674,456L617,366Z" fill="rgb(131,56,236)" stroke="rgb(131,56,236)" stroke-width="1.51"/><path d="M684,263L672,178L516,277Z" fill="rgb(175,57,194)" stroke="rgb(175,57,194)" stroke-width="1.51"/><path d="M728,346L684,263L617,366Z" fill="rgb(155,56,216)" stroke="rgb(155,56,216)" stroke-width="1.51"/><path d="M617,366L684,263L516,277Z" fill="rgb(160,56,210)" stroke="rgb(160,56,210)" stroke-width="1.51"/><path d="M-19,-158L-175,-126L-127,-48Z" fill="rgb(251,86,7)" stroke="rgb(251,86,7)" stroke-width="1.51"/><path d="M-127,-48L-175,-126L-164,61Z" fill="rgb(251,86,7)" stroke="rgb(251,86,7)" stroke-width="1.51"/><path d="M-164,61L-175,-126L-170,239Z" fill="rgb(247,82,39)" stroke="rgb(247,82,39)" stroke-width="1.51"/><path d="M521,-73L546,-176L459,-161Z" fill="rgb(221,67,118)" stroke="rgb(221,67,118)" stroke-width="1.51"/><path d="M618,81L640,-42L530,38Z" fill="rgb(211,63,139)" stroke="rgb(211,63,139)" stroke-width="1.51"/><path d="M748,80L640,-42L618,81Z" fill="rgb(209,62,143)" stroke="rgb(209,62,143)" stroke-width="1.51"/><path d="M680,551L674,456L532,483Z" fill="rgb(131,56,236)" stroke="rgb(131,56,236)" stroke-width="1.51"/><path d="M672,178L722,135L618,81Z" fill="rgb(195,59,166)" stroke="rgb(195,59,166)" stroke-width="1.51"/><path d="M757,254L722,135L672,178Z" fill="rgb(185,58,181)" stroke="rgb(185,58,181)" stroke-width="1.51"/><path d="M757,254L672,178L684,263Z" fill="rgb(176,57,192)" stroke="rgb(176,57,192)" stroke-width="1.51"/><path d="M640,-42L546,-176L521,-73Z" fill="rgb(216,65,128)" stroke="rgb(216,65,128)" stroke-width="1.51"/><path d="M459,-161L546,-176L270,-184Z" fill="rgb(227,70,103)" stroke="rgb(227,70,103)" stroke-width="1.51"/><path d="M674,456L728,346L617,366Z" fill="rgb(135,56,233)" stroke="rgb(135,56,233)" stroke-width="1.51"/><path d="M728,346L757,254L684,263Z" fill="rgb(164,56,207)" stroke="rgb(164,56,207)" stroke-width="1.51"/><path d="M757,254L748,80L722,135Z" fill="rgb(191,58,173)" stroke="rgb(191,58,173)" stroke-width="1.51"/><path d="M722,135L748,80L618,81Z" fill="rgb(200,60,158)" stroke="rgb(200,60,158)" stroke-width="1.51"/><path d="M640,-42L664,-188L546,-176Z" fill="rgb(214,64,133)" stroke="rgb(214,64,133)" stroke-width="1.51"/><path d="M674,456L753,434L728,346Z" fill="rgb(131,56,236)" stroke="rgb(131,56,236)" stroke-width="1.51"/><path d="M728,346L753,434L757,254Z" fill="rgb(149,56,221)" stroke="rgb(149,56,221)" stroke-width="1.51"/><path d="M539,567L680,551L532,483Z" fill="rgb(135,56,233)" stroke="rgb(135,56,233)" stroke-width="1.51"/><path d="M680,551L753,434L674,456Z" fill="rgb(131,56,236)" stroke="rgb(131,56,236)" stroke-width="1.51"/><path d="M777,-143L664,-188L640,-42Z" fill="rgb(214,64,133)" stroke="rgb(214,64,133)" stroke-width="1.51"/><path d="M546,-176L664,-188L270,-184Z" fill="rgb(222,67,115)" stroke="rgb(222,67,115)" stroke-width="1.51"/><path d="M680,551L743,578L753,434Z" fill="rgb(131,56,236)" stroke="rgb(131,56,236)" stroke-width="1.51"/><path d="M539,567L743,578L680,551Z" fill="rgb(131,56,236)" stroke="rgb(131,56,236)" stroke-width="1.51"/><path d="M13,562L743,578L539,567Z" fill="rgb(164,56,207)" stroke="rgb(164,56,207)" stroke-width="1.51"/><path d="M753,434L784,-64L757,254Z" fill="rgb(182,58,186)" stroke="rgb(182,58,186)" stroke-width="1.51"/><path d="M757,254L784,-64L748,80Z" fill="rgb(202,60,156)" stroke="rgb(202,60,156)" stroke-width="1.51"/><path d="M748,80L784,-64L640,-42Z" fill="rgb(214,64,133)" stroke="rgb(214,64,133)" stroke-width="1.51"/><path d="M784,-64L777,-143L640,-42Z" fill="rgb(214,64,133)" stroke="rgb(214,64,133)" stroke-width="1.51"/></svg>